# xmcd
#
# Track frame offsets: 
#        150
#        26775
#        37475
#        51850
#        65500
#        83100
#        96512
#        111750
#        126625
#        139537
#        152400
#        167700
#        185750
#        205412
#        216812
#        232362
#        244800
#        266500
#        285087
#        309787
#
# Disc length: 4295 seconds
#
# Revision: 1
# Processed by: cddbd v1.5.1PL2 Copyright (c) Steve Scherf et al.
# Submitted via: ExactAudioCopy v0.95a3
#
DISCID=2e10c514
DTITLE=Louis Armstrong - Blueberry Hill
DYEAR=1900
DGENRE=Jazz
TTITLE0=Hello Dolly
TTITLE1=Mame
TTITLE2=When the Saints go Marching In
TTITLE3=Ain't Misbehavin'
TTITLE4=Cabaret
TTITLE5=A Kiss to Build a Dream on
TTITLE6=Please don't Talk about me when I'm Gone
TTITLE7=Blueberry Hill
TTITLE8=St. Louis Blues
TTITLE9=That's my Desire
TTITLE10=Mack the knife
TTITLE11=Back O'Town Blues
TTITLE12=Indiana
TTITLE13=Tiger Rag
TTITLE14=Black and Blue
TTITLE15=C'est si Bon
TTITLE16=St. James Infirmary
TTITLE17=Someday You'll Be Sorry
TTITLE18=Sweathearts on Parade
TTITLE19=Jelly Roll Blues
EXTD=
EXTT0=
EXTT1=
EXTT2=
EXTT3=
EXTT4=
EXTT5=
EXTT6=
EXTT7=
EXTT8=
EXTT9=
EXTT10=
EXTT11=
EXTT12=
EXTT13=
EXTT14=
EXTT15=
EXTT16=
EXTT17=
EXTT18=
EXTT19=
PLAYORDER=
